<svg xmlns="http://www.w3.org/2000/svg"  viewBox="0 0 100 100" width="50px" height="50px"><path fill="#f1bc19" d="M77 12A1 1 0 1 0 77 14A1 1 0 1 0 77 12Z"/><path fill="#e4e4f9" d="M50 13A37 37 0 1 0 50 87A37 37 0 1 0 50 13Z"/><path fill="#f1bc19" d="M83 11A4 4 0 1 0 83 19A4 4 0 1 0 83 11Z"/><path fill="#8889b9" d="M87 22A2 2 0 1 0 87 26A2 2 0 1 0 87 22Z"/><path fill="#fbcd59" d="M81 74A2 2 0 1 0 81 78 2 2 0 1 0 81 74zM15 59A4 4 0 1 0 15 67 4 4 0 1 0 15 59z"/><path fill="#8889b9" d="M25 85A2 2 0 1 0 25 89A2 2 0 1 0 25 85Z"/><path fill="#fff" d="M18.5 49A2.5 2.5 0 1 0 18.5 54 2.5 2.5 0 1 0 18.5 49zM79.5 32A1.5 1.5 0 1 0 79.5 35 1.5 1.5 0 1 0 79.5 32z"/><g><path fill="#fdfcee" d="M50 25.599999999999998A24.3 24.3 0 1 0 50 74.2A24.3 24.3 0 1 0 50 25.599999999999998Z"/><path fill="#472b29" d="M50,74.8c-13.8,0-25-11.2-25-25c0-13.8,11.2-25,25-25c13.8,0,25,11.2,25,25C75,63.6,63.8,74.8,50,74.8z M50,26.3c-13,0-23.5,10.6-23.5,23.5S37,73.4,50,73.4s23.5-10.6,23.5-23.5S63,26.3,50,26.3z"/></g><g><path fill="#ea5167" d="M49.9 29.6A20.4 20.4 0 1 0 49.9 70.4A20.4 20.4 0 1 0 49.9 29.6Z"/></g><g><path fill="#ef7d99" d="M50.2,32.9c10.6,0,19.3,8.2,20.1,18.5c0-0.5,0.1-1,0.1-1.5c0-11-9-20-20.2-20c-11.1,0-20.2,9-20.2,20 c0,0.5,0,1,0.1,1.5C30.9,41,39.5,32.9,50.2,32.9z"/></g><g><path fill="#472b29" d="M69.4,44.6c-0.2,0-0.4-0.1-0.5-0.4c-0.1-0.3-0.2-0.6-0.3-0.9c-0.4-1.1-0.9-2.2-1.5-3.2 c-0.1-0.2-0.1-0.5,0.2-0.7c0.2-0.1,0.5-0.1,0.7,0.2c0.6,1.1,1.1,2.2,1.5,3.3c0.1,0.3,0.2,0.6,0.3,0.9c0.1,0.3-0.1,0.5-0.3,0.6 C69.5,44.6,69.5,44.6,69.4,44.6z"/></g><g><path fill="#472b29" d="M50,70.8c-11.5,0-20.9-9.3-20.9-20.8c0-11.5,9.4-20.8,20.9-20.8c6,0,11.7,2.6,15.6,7c0.3,0.3,0.6,0.7,0.9,1 c0.2,0.2,0.1,0.5-0.1,0.7c-0.2,0.2-0.5,0.1-0.7-0.1c-0.3-0.3-0.5-0.7-0.8-1c-3.8-4.2-9.2-6.7-14.9-6.7c-11,0-19.9,8.9-19.9,19.8 c0,10.9,8.9,19.8,19.9,19.8s19.9-8.9,19.9-19.8c0-1-0.1-2-0.2-3c0-0.3,0.1-0.5,0.4-0.6c0.3,0,0.5,0.1,0.6,0.4 c0.2,1,0.2,2.1,0.2,3.1C70.9,61.4,61.5,70.8,50,70.8z"/></g><g><path fill="#fdfcee" d="M56,57.1c-0.3,0-0.6-0.1-0.9-0.4l-5.2-5.2l-5.2,5.2c-0.2,0.2-0.5,0.4-0.9,0.4s-0.6-0.1-0.9-0.4 c-0.5-0.5-0.5-1.2,0-1.7l5.2-5.2L43,44.6c-0.5-0.5-0.5-1.2,0-1.7c0.2-0.2,0.5-0.4,0.9-0.4s0.6,0.1,0.9,0.4l5.2,5.2l5.2-5.2 c0.2-0.2,0.5-0.4,0.9-0.4c0.3,0,0.6,0.1,0.9,0.4s0.4,0.5,0.4,0.9s-0.1,0.6-0.4,0.9l-5.2,5.2l5.2,5.2c0.2,0.2,0.4,0.5,0.4,0.9 c0,0.3-0.1,0.6-0.4,0.9S56.3,57.1,56,57.1z"/><path fill="#472b29" d="M56,43.1c0.2,0,0.4,0.1,0.5,0.2c0.3,0.3,0.3,0.7,0,1l-5.5,5.5l5.5,5.5c0.3,0.3,0.3,0.7,0,1 c-0.1,0.1-0.3,0.2-0.5,0.2s-0.4-0.1-0.5-0.2l-5.5-5.5l-5.5,5.5c-0.1,0.1-0.3,0.2-0.5,0.2s-0.4-0.1-0.5-0.2c-0.3-0.3-0.3-0.7,0-1 l5.5-5.5l-5.5-5.5c-0.3-0.3-0.3-0.7,0-1c0.1-0.1,0.3-0.2,0.5-0.2s0.4,0.1,0.5,0.2l5.5,5.5l5.5-5.5C55.6,43.1,55.8,43.1,56,43.1 M56,42.1c-0.5,0-0.9,0.2-1.2,0.5l-4.8,4.8l-4.8-4.8c-0.3-0.3-0.8-0.5-1.2-0.5s-0.9,0.2-1.2,0.5c-0.3,0.3-0.5,0.8-0.5,1.2 s0.2,0.9,0.5,1.2l4.8,4.8l-4.8,4.8c-0.3,0.3-0.5,0.8-0.5,1.2s0.2,0.9,0.5,1.2c0.3,0.3,0.8,0.5,1.2,0.5s0.9-0.2,1.2-0.5l4.8-4.8 l4.8,4.8c0.3,0.3,0.8,0.5,1.2,0.5s0.9-0.2,1.2-0.5c0.3-0.3,0.5-0.8,0.5-1.2s-0.2-0.9-0.5-1.2l-4.8-4.8l4.8-4.8 c0.3-0.3,0.5-0.8,0.5-1.2s-0.2-0.9-0.5-1.2C56.9,42.2,56.4,42.1,56,42.1L56,42.1z"/></g></svg>