<svg width="64" height="64" viewBox="0 0 64 64" fill="none" xmlns="http://www.w3.org/2000/svg">
<path d="M36.1802 56.8308C36.6586 56.5957 37.0618 56.2312 37.3441 55.7784C37.6264 55.3257 37.7767 54.8028 37.7778 54.2689V38.8688C37.7778 38.1103 38.0811 37.3809 38.6242 36.8424L56.3071 19.3175C56.8427 18.7877 57.2681 18.1568 57.5587 17.4611C57.8493 16.7655 57.9993 16.019 58 15.2649V7.86587C57.9985 7.48751 57.9225 7.11317 57.7764 6.76427C57.6304 6.41537 57.4171 6.09876 57.1487 5.83257C56.8804 5.56638 56.5623 5.35583 56.2127 5.21297C55.863 5.07012 55.4887 4.99777 55.1111 5.00005H8.88889C7.29133 5.00005 6 6.27954 6 7.86587V15.2649C6 16.7846 6.60956 18.2436 7.69289 19.3175L25.3758 36.8424C25.6437 37.1072 25.8565 37.4227 26.0018 37.7705C26.1471 38.1184 26.222 38.4917 26.2222 38.8688V57.1347C26.2222 59.2624 28.4813 60.6461 30.4024 59.6937L36.1802 56.8308V56.8308Z" fill="black"/>
</svg>
